/* XPM */
static char * gtk_xpm[] = {
"32 32 5 1",
".      c black",
"+      c black",
"$      c #3070E0",
"#      c #F05050",
"@      c yellow",
"++++++++++++++++++++++++++++++++",
"++++++++++++++++++++++++++++++++",
"++@@@@@@@@@@@@@@@@@@@@@@@@@@@@++",
"++@@@@@@@@@@@@@@@@@@@@@@@@@@@@++",
"++@@@@@@@@@@@@@@@@@@@@@@@@@@@@++",
"++@@@@@@@@@@@@@@@@@@@@@@@@@@@@++",
"++@@@@@@@@@@@@@@@@@@@@@@@@@@@@++",
"++@@@@@@@@@..........@@@@@@@@@++",
"++@@@@@@@..............@@@@@@@++",
"++@@@@@@................@@@@@@++",
"++@@@@@..................@@@@@++",
"++@@@@@.......@@@@.......@@@@@++",
"++@@@@@......@@@@@@......@@@@@++",
"++@@@@@.....@@@@@@@@.....@@@@@++",
"++@@@@@.....@@@@@@@@.....@@@@@++",
"++@@@@@.....@@@@@@@@.....@@@@@++",
"++@@@@@.....@@@@@@@@.....@@@@@++",
"++@@@@@.....@@@@@@@@.....@@@@@++",
"++@@@@@.....@@@@@@@@.....@@@@@++",
"++@@@@@.....@@@@@@@@.....@@@@@++",
"++@@@@@......@@@@@@......@@@@@++",
"++@@@@@.......@@@@.......@@@@@++",
"++@@@@@..................@@@@@++",
"++@@@@@@................@@@@@@++",
"++@@@@@@@..............@@@@@@@++",
"++@@@@@@@@@..........@@@@@@@@@++",
"++@@@@@@@@@@@@@@@@@@@@@@@@@@@@++",
"++@@@@@@@@@@@@@@@@@@@@@@@@@@@@++",
"++@@@@@@@@@@@@@@@@@@@@@@@@@@@@++",
"++@@@@@@@@@@@@@@@@@@@@@@@@@@@@++",
"++++++++++++++++++++++++++++++++",
"++++++++++++++++++++++++++++++++"
};
